HIERARCHY
ROOT Hips
{
	OFFSET 0.000000 0.000000 0.000000
	CHANNELS 6 Xposition Yposition Zposition Zrotation Yrotation Xrotation 
	JOINT LHipJoint
	{
		OFFSET 0.000000 0.000000 0.000000
		CHANNELS 3 Zrotation Yrotation Xrotation
		JOINT LeftUpLeg
		{
			OFFSET 1.363060 -1.794630 0.839290
			CHANNELS 3 Zrotation Yrotation Xrotation
			JOINT LeftLeg
			{
				OFFSET 2.448110 -6.726130 0.000000
				CHANNELS 3 Zrotation Yrotation Xrotation
				JOINT LeftFoot
				{
					OFFSET 2.562200 -7.039590 0.000000
					CHANNELS 3 Zrotation Yrotation Xrotation
					JOINT LeftToeBase
					{
						OFFSET 0.157640 -0.433110 2.322550
						CHANNELS 3 Zrotation Yrotation Xrotation
						End Site
						{
							OFFSET 0.000000 0.000000 0.000000
						}
					}
				}
			}
		}
	}
	JOINT RHipJoint
	{
		OFFSET 0.000000 0.000000 0.000000
		CHANNELS 3 Zrotation Yrotation Xrotation
		JOINT RightUpLeg
		{
			OFFSET -1.305520 -1.794630 0.839290
			CHANNELS 3 Zrotation Yrotation Xrotation
			JOINT RightLeg
			{
				OFFSET -2.542530 -6.985550 0.000000
				CHANNELS 3 Zrotation Yrotation Xrotation
				JOINT RightFoot
				{
					OFFSET -2.568260 -7.056230 0.000000
					CHANNELS 3 Zrotation Yrotation Xrotation
					JOINT RightToeBase
					{
						OFFSET -0.164730 -0.452590 2.363150
						CHANNELS 3 Zrotation Yrotation Xrotation
						End Site
						{
							OFFSET 0.000000 0.000000 0.000000
						}
					}
				}
			}
		}
	}
	JOINT LowerBack
	{
		OFFSET 0.000000 0.000000 0.000000
		CHANNELS 3 Zrotation Yrotation Xrotation
		JOINT Spine
		{
			OFFSET 0.028270 2.035590 -0.193380
			CHANNELS 3 Zrotation Yrotation Xrotation
			JOINT Spine1
			{
				OFFSET 0.056720 2.048850 -0.042750
				CHANNELS 3 Zrotation Yrotation Xrotation
				JOINT Neck
				{
					OFFSET 0.000000 0.000000 0.000000
					CHANNELS 3 Zrotation Yrotation Xrotation
					JOINT Neck1
					{
						OFFSET -0.054170 1.746240 0.172020
						CHANNELS 3 Zrotation Yrotation Xrotation
						JOINT Head
						{
							OFFSET 0.104070 1.761360 -0.123970
							CHANNELS 3 Zrotation Yrotation Xrotation
							End Site
							{
								OFFSET 0.000000 0.000000 0.000000
							}
						}
					}
				}
				JOINT LeftShoulder
				{
					OFFSET 0.000000 0.000000 0.000000
					CHANNELS 3 Zrotation Yrotation Xrotation
					JOINT LeftArm
					{
						OFFSET 3.362410 1.200890 -0.311210
						CHANNELS 3 Zrotation Yrotation Xrotation
						JOINT LeftForeArm
						{
							OFFSET 4.983000 -0.000000 -0.000000
							CHANNELS 3 Zrotation Yrotation Xrotation
							JOINT LeftHand
							{
								OFFSET 3.483560 -0.000000 -0.000000
								CHANNELS 3 Zrotation Yrotation Xrotation
								JOINT LeftFingerBase
								{
									OFFSET 0.000000 0.000000 0.000000
									CHANNELS 3 Zrotation Yrotation Xrotation
									JOINT LeftHandIndex1
									{
										OFFSET 0.715260 -0.000000 -0.000000
										CHANNELS 3 Zrotation Yrotation Xrotation
										End Site
										{
											OFFSET 0.000000 0.000000 0.000000
										}
									}
								}
								JOINT LThumb
								{
									OFFSET 0.000000 0.000000 0.000000
									CHANNELS 3 Zrotation Yrotation Xrotation
									End Site
									{
										OFFSET 0.000000 0.000000 0.000000
									}
								}
							}
						}
					}
				}
				JOINT RightShoulder
				{
					OFFSET 0.000000 0.000000 0.000000
					CHANNELS 3 Zrotation Yrotation Xrotation
					JOINT RightArm
					{
						OFFSET -3.136600 1.374050 -0.404650
						CHANNELS 3 Zrotation Yrotation Xrotation
						JOINT RightForeArm
						{
							OFFSET -5.241900 -0.000000 -0.000000
							CHANNELS 3 Zrotation Yrotation Xrotation
							JOINT RightHand
							{
								OFFSET -3.444170 -0.000000 -0.000000
								CHANNELS 3 Zrotation Yrotation Xrotation
								JOINT RightFingerBase
								{
									OFFSET 0.000000 0.000000 0.000000
									CHANNELS 3 Zrotation Yrotation Xrotation
									JOINT RightHandIndex1
									{
										OFFSET -0.622530 -0.000000 -0.000000
										CHANNELS 3 Zrotation Yrotation Xrotation
										End Site
										{
											OFFSET 0.000000 0.000000 0.000000
										}
									}
								}
								JOINT RThumb
								{
									OFFSET 0.000000 0.000000 0.000000
									CHANNELS 3 Zrotation Yrotation Xrotation
									End Site
									{
										OFFSET 0.000000 0.000000 0.000000
									}
								}
							}
						}
					}
				}
			}
		}
	}
}
MOTION
Frames: 9
Frame Time: 0.008333
1.325967 15.957396 1.502891 12.032534 -79.448716 34.417587 -8.380983 -1.067306 2.768719 -13.710956 -12.785428 -74.678990 -2.348996 2.276512 43.181827 2.100800 5.021540 -15.867358 -0.604901 -0.000000 -31.994400 8.659343 2.245819 2.058377 1.990302 4.117849 -80.370955 -1.610839 -5.354980 67.615824 -4.479944 -19.309909 -0.622279 -4.068000 -0.000000 -66.041300 -4.338059 -2.717488 -1.051855 -1.600508 -2.568573 -3.150649 -5.174295 -2.573935 -0.478843 9.309937 -15.579391 -9.796276 -0.794387 0.008343 -1.039736 0.000000 0.000000 0.000000 17.815132 2.194439 1.313515 -49.546861 -12.537103 -1.410535 -179.135674 -76.407713 179.963476 3.817237 2.250362 0.062218 -0.159818 0.506196 -0.000000 0.000000 0.000000 0.000000 0.000000 0.000000 0.000000 0.507437 -9.415367 1.948100 62.916957 -3.387507 14.035266 179.281722 75.098690 179.982784 -3.096354 6.101717 -0.183127 0.082795 -0.550357 -0.000000 0.000000 0.000000 0.000000 0.000000 0.000000 0.000000 
1.319095 15.996439 1.524131 11.140600 -79.196270 34.624791 -8.431622 -1.065710 2.689540 -13.817548 -12.412980 -73.615088 -2.373166 2.220969 42.737273 2.031715 4.810681 -15.725328 -0.583300 -0.000001 -32.162000 8.650900 2.340846 1.977083 2.076943 3.991274 -80.566935 -1.782762 -5.424538 68.953064 -4.444550 -19.686797 1.641784 -4.805100 -0.000001 -65.597500 -4.229223 -2.821010 -0.944414 -1.558273 -2.678819 -3.111022 -5.149738 -2.685445 -0.432196 9.260596 -15.803135 -9.801577 -0.736297 0.012671 -1.028355 0.000000 0.000000 0.000000 17.833327 2.101018 1.264760 -48.552583 -12.920715 -1.966731 -179.165471 -76.422119 179.959829 4.161686 2.392830 0.073010 -0.165976 0.505425 0.000000 0.000000 0.000000 0.000000 0.000000 0.000000 0.000000 0.304118 -9.708030 1.951474 62.661466 -3.895508 15.000050 179.280749 75.199706 179.985657 -2.725138 5.991453 -0.158077 0.074396 -0.540260 0.000000 0.000000 0.000000 0.000000 0.000000 0.000000 0.000000 
1.313479 16.036855 1.546974 10.056696 -78.992141 35.029465 -8.486788 -1.070727 2.610687 -13.854982 -12.016001 -72.568395 -2.388272 2.161364 42.275003 1.974296 4.651856 -15.580602 -0.563900 0.000000 -32.336100 8.630339 2.430949 1.895926 2.226183 3.890624 -80.827023 -1.938475 -5.491093 70.252402 -4.396045 -19.977857 4.040605 -5.570600 0.000000 -65.364900 -4.078915 -2.921855 -0.836618 -1.504118 -2.788104 -3.073011 -5.115215 -2.796402 -0.387623 9.217751 -16.012737 -9.802950 -0.677169 0.017016 -1.016377 0.000000 0.000000 0.000000 17.822750 2.042539 1.217819 -47.670886 -13.222640 -2.550126 -179.199160 -76.465105 179.955927 4.532137 2.540595 0.085303 -0.172248 0.504546 -0.000000 0.000000 0.000000 0.000000 0.000000 0.000000 0.000000 0.093404 -9.990514 1.948143 62.356349 -4.306239 15.945190 179.279276 75.275463 179.988033 -2.415358 5.887027 -0.137624 0.067624 -0.530642 -0.000000 0.000000 0.000000 0.000000 0.000000 0.000000 0.000000 
1.309244 16.078599 1.571480 8.777585 -78.840726 35.638863 -8.546115 -1.083792 2.532978 -13.818524 -11.600445 -71.544363 -2.393029 2.097381 41.796377 1.930630 4.555263 -15.434765 -0.547300 0.000000 -32.503400 8.597997 2.514763 1.817386 2.427700 3.821238 -81.154405 -2.076272 -5.554590 71.498591 -4.326009 -20.129598 6.567352 -6.334300 -0.000000 -65.376500 -3.887010 -3.014358 -0.731571 -1.438814 -2.890679 -3.038592 -5.072060 -2.901059 -0.348938 9.178878 -16.203808 -9.796556 -0.617787 0.021230 -1.002662 0.000000 0.000000 0.000000 17.787574 2.001284 1.172441 -46.915833 -13.432587 -3.153766 -179.234920 -76.527128 179.951995 4.907025 2.685741 0.098598 -0.178193 0.503642 -0.000000 0.000000 0.000000 0.000000 0.000000 0.000000 0.000000 -0.129084 -10.251975 1.939750 62.016783 -4.641210 16.845523 179.277660 75.320397 179.989894 -2.170752 5.789159 -0.121568 0.062443 -0.521679 -0.000000 0.000000 0.000000 0.000000 0.000000 0.000000 0.000000 
1.306244 16.121422 1.597237 7.319888 -78.748389 36.446059 -8.608116 -1.106025 2.455764 -13.712513 -11.169762 -70.548524 -2.387729 2.028965 41.300450 1.901882 4.527838 -15.285554 -0.533400 -0.000000 -32.676400 8.555500 2.591064 1.747702 2.659032 3.795596 -81.557583 -2.196053 -5.614060 72.675988 -4.228543 -20.092813 9.215163 -7.057800 0.000000 -65.681800 -3.665585 -3.094287 -0.633755 -1.365887 -2.981592 -3.008325 -5.021557 -2.994356 -0.314754 9.146824 -16.377680 -9.782646 -0.557972 0.025329 -0.987373 0.000000 0.000000 0.000000 17.738830 1.982471 1.127489 -46.292704 -13.570857 -3.759587 -179.271788 -76.611817 179.948207 5.269557 2.823525 0.112192 -0.183498 0.502774 -0.000000 0.000000 0.000000 0.000000 0.000000 0.000000 0.000000 -0.360148 -10.491262 1.926513 61.656957 -4.909812 17.689266 179.276494 75.340840 179.991263 -1.991782 5.697705 -0.109707 0.058796 -0.513413 -0.000000 0.000000 0.000000 0.000000 0.000000 0.000000 0.000000 
1.304457 16.165242 1.624016 5.681606 -78.718937 37.459021 -8.671736 -1.138031 2.378525 -13.540849 -10.726662 -69.584573 -2.372648 1.956246 40.786572 1.888635 4.573534 -15.131689 -0.522000 -0.000001 -32.857600 8.504370 2.658859 1.690989 2.903756 3.821272 -82.042190 -2.297474 -5.669757 73.769476 -4.098927 -19.815192 11.949062 -7.684800 0.000000 -66.234000 -3.420073 -3.157854 -0.546187 -1.287343 -3.056748 -2.982978 -4.965387 -3.072107 -0.285401 9.121516 -16.534256 -9.759906 -0.498080 0.029255 -0.970151 0.000000 0.000000 0.000000 17.681609 1.980215 1.082880 -45.802024 -13.640756 -4.358930 -179.308238 -76.713512 179.944774 5.599805 2.947503 0.125285 -0.187781 0.502001 -0.000000 0.000000 0.000000 0.000000 0.000000 0.000000 0.000000 -0.599725 -10.704791 1.909251 61.290737 -5.122827 18.463436 179.275793 75.337343 179.992191 -1.871368 5.611710 -0.101440 0.056467 -0.505894 0.000000 0.000000 0.000000 0.000000 0.000000 0.000000 0.000000 
1.303963 16.209918 1.651763 3.841383 -78.754418 38.701605 -8.736341 -1.180100 2.300445 -13.307656 -10.271154 -68.656849 -2.348477 1.880001 40.256487 1.890493 4.690506 -14.974878 -0.513100 -0.000000 -33.021400 8.445571 2.717491 1.650441 3.150018 3.905426 -82.612505 -2.380890 -5.722242 74.764062 -3.935771 -19.256116 14.713141 -8.152000 -0.000000 -66.963800 -3.150962 -3.202282 -0.471072 -1.203979 -3.113384 -2.963788 -4.905316 -3.131519 -0.263342 9.099287 -16.665423 -9.725014 -0.439193 0.032846 -0.950003 0.000000 0.000000 0.000000 17.615947 1.982003 1.039891 -45.438538 -13.630748 -4.950255 -179.342355 -76.817212 179.941887 5.879947 3.051615 0.136877 -0.190756 0.501368 -0.000000 0.000000 0.000000 0.000000 0.000000 0.000000 0.000000 -0.851188 -10.879793 1.888839 60.933572 -5.299630 19.151924 179.275618 75.310808 179.992798 -1.794269 5.532420 -0.095970 0.055003 -0.499177 -0.000000 0.000000 0.000000 0.000000 0.000000 0.000000 0.000000 
1.304613 16.255217 1.680224 1.788683 -78.855348 40.191072 -8.800712 -1.231886 2.220184 -13.021478 -9.802917 -67.766840 -2.316555 1.800770 39.709238 1.906583 4.875575 -14.812961 -0.505700 0.000000 -33.181200 8.381074 2.766725 1.628931 3.384595 4.052302 -83.274204 -2.447940 -5.772775 75.648708 -3.740524 -18.389163 17.439399 -8.399000 -0.000000 -67.785100 -2.864057 -3.226162 -0.409226 -1.117719 -3.149841 -2.950081 -4.842817 -3.170778 -0.246013 9.081649 -16.776677 -9.679803 -0.381327 0.036141 -0.927571 0.000000 0.000000 0.000000 17.544928 1.992453 0.998654 -45.194532 -13.552524 -5.525834 -179.373237 -76.921114 179.939679 6.097372 3.132282 0.146165 -0.192223 0.500900 -0.000000 0.000000 0.000000 0.000000 0.000000 0.000000 0.000000 -1.110716 -11.021804 1.865707 60.592844 -5.435629 19.754948 179.275596 75.265923 179.993168 -1.749301 5.458460 -0.092295 0.054193 -0.493231 -0.000000 0.000000 0.000000 0.000000 0.000000 0.000000 0.000000 
1.306412 16.300957 1.709382 -0.506449 -79.018829 41.959478 -8.864245 -1.292782 2.136370 -12.689802 -9.320307 -66.915299 -2.278221 1.719557 39.146335 1.935408 5.121634 -14.646543 -0.499200 -0.000000 -33.338400 8.311901 2.806857 1.626833 3.602389 4.261658 -84.031305 -2.500881 -5.823354 76.415637 -3.517220 -17.208888 20.047355 -8.378400 -0.000000 -68.555700 -2.559279 -3.229054 -0.359283 -1.029038 -3.165773 -2.941441 -4.779176 -3.189442 -0.233237 9.066642 -16.866798 -9.624274 -0.325171 0.039086 -0.902923 0.000000 0.000000 0.000000 17.467056 2.008906 0.960393 -45.059669 -13.402814 -6.085389 -179.399736 -77.014368 179.938242 6.243358 3.187593 0.152651 -0.192100 0.500590 -0.000000 0.000000 0.000000 0.000000 0.000000 0.000000 0.000000 -1.378026 -11.128523 1.840509 60.274514 -5.532813 20.269436 179.275285 75.204118 179.993403 -1.721412 5.389444 -0.089718 0.053699 -0.488045 -0.000000 0.000000 0.000000 0.000000 0.000000 0.000000 0.000000 
